<svg width="81" height="40" viewBox="0 0 81 40" fill="none" xmlns="http://www.w3.org/2000/svg">
<circle cx="19.8751" cy="19.8755" r="9.375" fill="#F55C59"/>
<circle cx="61.1251" cy="19.8755" r="9.375" fill="#F55C59"/>
<path fill-rule="evenodd" clip-rule="evenodd" d="M42.36 27.0977C42.3558 27.1249 42.3611 27.1527 42.375 27.1765L43.655 29.36C47.0225 35.5493 53.5832 39.75 61.125 39.75C72.1017 39.75 81 30.8517 81 19.875C81 8.89834 72.1017 0 61.125 0C51.825 0 44.0169 6.38758 41.8485 15.0148C41.6741 15.7089 40.6855 15.8913 40.319 15.2766C39.182 13.3691 38.1441 11.7195 37.5767 10.829C34.2849 4.40015 27.5938 0 19.875 0C8.89834 0 0 8.89834 0 19.875C0 30.8517 8.89834 39.75 19.875 39.75C25.6791 39.75 30.9021 37.2621 34.5357 33.2945C35.0272 32.7579 36 33.0889 36 33.8165V39C36 39.4142 36.3358 39.75 36.75 39.75H38.25C39.4926 39.75 40.5 38.7426 40.5 37.5V30.625C40.5 30.4627 40.4474 30.3048 40.35 30.175L36.0797 22.922C35.1102 22.4255 34.7155 23.9603 34.5179 24.5764C32.5315 30.7683 26.7266 35.25 19.875 35.25C11.3836 35.25 4.5 28.3664 4.5 19.875C4.5 11.3836 11.3836 4.5 19.875 4.5C25.1765 4.5 29.8513 7.18321 32.6154 11.2657C32.6183 11.27 32.625 11.2679 32.625 11.2628C32.625 11.2581 32.6292 11.2544 32.6323 11.2579C32.8527 11.5024 34.52 14.1885 36.1873 16.8746L36.1874 16.8748L36.1877 16.8753L36.1878 16.8756C37.7584 19.4059 39.329 21.9362 39.6901 22.4255C39.7283 22.4774 39.7665 22.5282 39.799 22.5838L42.3746 26.9994L42.375 27L42.36 27.0977ZM76.5 19.875C76.5 28.3664 69.6164 35.25 61.125 35.25C52.6336 35.25 45.75 28.3664 45.75 19.875C45.75 11.3836 52.6336 4.5 61.125 4.5C69.6164 4.5 76.5 11.3836 76.5 19.875Z" fill="white"/>
<path d="M42 6.69471C42 7.41306 42.9125 7.72044 43.3471 7.14853L46.3471 3.20116C46.4463 3.07066 46.5 2.91126 46.5 2.74734V1.5C46.5 1.08579 46.1642 0.75 45.75 0.75H44.25C43.0074 0.75 42 1.75736 42 3V6.69471Z" fill="white"/>
<path d="M46.5 37.6736C46.5 37.5097 46.4463 37.3503 46.3471 37.2198L43.3471 33.2725C42.9125 32.7005 42 33.0079 42 33.7263V37.5C42 38.7426 43.0074 39.75 44.25 39.75H45.75C46.1642 39.75 46.5 39.4142 46.5 39V37.6736Z" fill="white"/>
</svg>
